<svg xmlns="http://www.w3.org/2000/svg" width="516.968" height="320.418" viewBox="0 0 516.968 320.418">
  <g id="Grupo_183" data-name="Grupo 183" transform="translate(10.09)">
    <g id="Grupo_178" data-name="Grupo 178" transform="translate(74.641 0)">
      <path id="Trazado_526" data-name="Trazado 526" d="M249.228,272.053a32.508,32.508,0,1,1,0-65.017H545.1a32.508,32.508,0,1,1,0,65.017Z" transform="translate(-181.178 -161.296)" fill="#e6e6e6"/>
      <path id="Trazado_527" data-name="Trazado 527" d="M253.988,216.037a28.268,28.268,0,0,0,0,56.536H549.86a28.268,28.268,0,1,0,0-56.536Z" transform="translate(-185.937 -166.056)" fill="#fff"/>
      <rect id="Rectángulo_406" data-name="Rectángulo 406" width="0.942" height="56.536" transform="translate(98.046 49.981)" fill="#e6e6e6"/>
      <rect id="Rectángulo_407" data-name="Rectángulo 407" width="0.942" height="56.536" transform="translate(156.859 49.981)" fill="#e6e6e6"/>
      <rect id="Rectángulo_408" data-name="Rectángulo 408" width="0.942" height="56.536" transform="translate(215.751 49.981)" fill="#e6e6e6"/>
      <rect id="Rectángulo_409" data-name="Rectángulo 409" width="0.942" height="56.536" transform="translate(274.172 49.981)" fill="#e6e6e6"/>
      <rect id="Rectángulo_410" data-name="Rectángulo 410" width="0.942" height="56.536" transform="translate(333.064 49.981)" fill="#e6e6e6"/>
      <path id="Trazado_528" data-name="Trazado 528" d="M382.366,258.037a1.364,1.364,0,0,0,0,2.728H410.04a1.364,1.364,0,0,0,0-2.728Z" transform="translate(-268.061 -188.268)" fill="#e6e6e6"/>
      <path id="Trazado_529" data-name="Trazado 529" d="M382.366,273.037a1.364,1.364,0,0,0,0,2.728H410.04a1.364,1.364,0,0,0,0-2.728Z" transform="translate(-268.061 -196.201)" fill="#e6e6e6"/>
      <path id="Trazado_530" data-name="Trazado 530" d="M382.366,288.037a1.364,1.364,0,0,0,0,2.728H410.04a1.364,1.364,0,0,0,0-2.728Z" transform="translate(-268.061 -204.134)" fill="#e6e6e6"/>
      <path id="Trazado_531" data-name="Trazado 531" d="M506.366,258.037a1.364,1.364,0,1,0,0,2.728H534.04a1.364,1.364,0,1,0,0-2.728Z" transform="translate(-333.64 -188.268)" fill="#42c712"/>
      <path id="Trazado_532" data-name="Trazado 532" d="M506.366,273.037a1.364,1.364,0,1,0,0,2.728H534.04a1.364,1.364,0,1,0,0-2.728Z" transform="translate(-333.64 -196.201)" fill="#42c712"/>
      <path id="Trazado_533" data-name="Trazado 533" d="M506.366,288.037a1.364,1.364,0,1,0,0,2.728H534.04a1.364,1.364,0,1,0,0-2.728Z" transform="translate(-333.64 -204.134)" fill="#42c712"/>
      <path id="Trazado_534" data-name="Trazado 534" d="M631.366,258.037a1.364,1.364,0,1,0,0,2.728H659.04a1.364,1.364,0,0,0,0-2.728Z" transform="translate(-399.748 -188.268)" fill="#e6e6e6"/>
      <path id="Trazado_535" data-name="Trazado 535" d="M631.366,273.037a1.364,1.364,0,1,0,0,2.728H659.04a1.364,1.364,0,0,0,0-2.728Z" transform="translate(-399.748 -196.201)" fill="#e6e6e6"/>
      <path id="Trazado_536" data-name="Trazado 536" d="M631.366,288.037a1.364,1.364,0,1,0,0,2.728H659.04a1.364,1.364,0,0,0,0-2.728Z" transform="translate(-399.748 -204.134)" fill="#e6e6e6"/>
      <path id="Trazado_537" data-name="Trazado 537" d="M755.866,258.037a1.364,1.364,0,0,0,0,2.728H783.54a1.364,1.364,0,0,0,0-2.728Z" transform="translate(-465.592 -188.268)" fill="#e6e6e6"/>
      <path id="Trazado_538" data-name="Trazado 538" d="M755.866,273.037a1.364,1.364,0,0,0,0,2.728H783.54a1.364,1.364,0,0,0,0-2.728Z" transform="translate(-465.592 -196.201)" fill="#e6e6e6"/>
      <path id="Trazado_539" data-name="Trazado 539" d="M755.866,288.037a1.364,1.364,0,0,0,0,2.728H783.54a1.364,1.364,0,0,0,0-2.728Z" transform="translate(-465.592 -204.134)" fill="#e6e6e6"/>
      <path id="Trazado_540" data-name="Trazado 540" d="M877.366,258.037a1.364,1.364,0,1,0,0,2.728H905.04a1.364,1.364,0,1,0,0-2.728Z" transform="translate(-529.849 -188.268)" fill="#e6e6e6"/>
      <path id="Trazado_541" data-name="Trazado 541" d="M877.366,273.037a1.364,1.364,0,1,0,0,2.728H905.04a1.364,1.364,0,1,0,0-2.728Z" transform="translate(-529.849 -196.201)" fill="#e6e6e6"/>
      <path id="Trazado_542" data-name="Trazado 542" d="M877.366,288.037a1.364,1.364,0,1,0,0,2.728H905.04a1.364,1.364,0,1,0,0-2.728Z" transform="translate(-529.849 -204.134)" fill="#e6e6e6"/>
      <path id="Trazado_543" data-name="Trazado 543" d="M257.366,258.037a1.364,1.364,0,0,0,0,2.728H285.04a1.364,1.364,0,1,0,0-2.728Z" transform="translate(-201.952 -188.268)" fill="#e6e6e6"/>
      <path id="Trazado_544" data-name="Trazado 544" d="M257.366,273.037a1.364,1.364,0,0,0,0,2.728H285.04a1.364,1.364,0,1,0,0-2.728Z" transform="translate(-201.952 -196.201)" fill="#e6e6e6"/>
      <path id="Trazado_545" data-name="Trazado 545" d="M257.366,288.037a1.364,1.364,0,1,0,0,2.728H285.04a1.364,1.364,0,1,0,0-2.728Z" transform="translate(-201.952 -204.134)" fill="#e6e6e6"/>
      <circle id="Elipse_548" data-name="Elipse 548" cx="22.323" cy="22.323" r="22.323" transform="translate(164.273)" fill="#55f01d"/>
      <path id="Trazado_546" data-name="Trazado 546" d="M380.387,97.266l-6.98-12.09-6.98-12.09h27.92l-6.98,12.09Z" transform="translate(-193.791 -38.653)" fill="#55f01d"/>
      <circle id="Elipse_549" data-name="Elipse 549" cx="8.009" cy="8.009" r="8.009" transform="translate(178.767 14.175)" fill="#fff"/>
      <path id="Trazado_547" data-name="Trazado 547" d="M1014.694,247.136a13.567,13.567,0,1,0,13.567,13.567,13.567,13.567,0,0,0-13.567-13.567Zm0,25.13a11.563,11.563,0,1,1,11.563-11.563A11.563,11.563,0,0,1,1014.694,272.266Z" transform="translate(-596.024 -182.503)" fill="#e6e6e6"/>
      <path id="Trazado_548" data-name="Trazado 548" d="M1023.19,274.531a.716.716,0,0,1-.506-.21l-3.865-3.865a.716.716,0,0,1,1.012-1.012l3.275,3.275,5.806-7.917a.716.716,0,0,1,1.155.847l-6.3,8.59a.716.716,0,0,1-.523.291Z" transform="translate(-605.269 -191.691)" fill="#42c712"/>
      <path id="Trazado_549" data-name="Trazado 549" d="M154.847,247.136A13.567,13.567,0,1,0,168.414,260.7a13.567,13.567,0,0,0-13.567-13.567Zm0,25.13A11.563,11.563,0,1,1,166.41,260.7,11.563,11.563,0,0,1,154.847,272.266Z" transform="translate(-141.28 -182.503)" fill="#e6e6e6"/>
      <path id="Trazado_550" data-name="Trazado 550" d="M161.588,275.378a.716.716,0,0,1-.506-1.222l7.629-7.629a.716.716,0,1,1,1.012,1.012l-7.629,7.629A.714.714,0,0,1,161.588,275.378Z" transform="translate(-151.642 -192.647)" fill="#42c712"/>
      <path id="Trazado_551" data-name="Trazado 551" d="M168.394,275.378a.714.714,0,0,1-.506-.21l-7.629-7.629a.716.716,0,1,1,1.012-1.012l7.629,7.629a.716.716,0,0,1-.506,1.222Z" transform="translate(-151.206 -192.647)" fill="#42c712"/>
      <path id="Trazado_552" data-name="Trazado 552" d="M699.373,665.687H573.391v-1.029H699.559Z" transform="translate(-303.247 -351.515)" fill="#3f3d56"/>
      <rect id="Rectángulo_411" data-name="Rectángulo 411" width="8.765" height="11.92" transform="translate(301.438 300.203)" fill="#ffb8b8"/>
      <rect id="Rectángulo_412" data-name="Rectángulo 412" width="8.765" height="11.92" transform="translate(345.963 300.203)" fill="#ffb8b8"/>
      <path id="Trazado_553" data-name="Trazado 553" d="M901.272,517.219h0a5.2,5.2,0,0,1-5.138-6.007l1.436-9.152.427-2.722h6.661l.351,3.857,1.387,7.926a5.2,5.2,0,0,1-5.123,6.1Z" transform="translate(-540.463 -315.884)" fill="#ffb8b8"/>
      <path id="Trazado_554" data-name="Trazado 554" d="M762.859,514.987h0a5.2,5.2,0,0,1-5.138-6.007l1.435-9.152.427-2.722h6.661l.351,3.857,1.387,7.926a5.2,5.2,0,0,1-5.123,6.1Z" transform="translate(-467.261 -314.704)" fill="#ffb8b8"/>
      <path id="Trazado_555" data-name="Trazado 555" d="M690.219,507.41,679.7,507.06,662.522,403.283,645.343,507.41l-10.167-.351-2.8-119.9h58.9Z" transform="translate(-334.439 -204.753)" fill="#2f2e41"/>
      <path id="Trazado_556" data-name="Trazado 556" d="M775.3,771.288c-8.924.258-15.909-2.154-20.489-7.881a3.783,3.783,0,0,1-.286-4.308h0a3.782,3.782,0,0,1,3.682-1.811l2.9.339,6.038-3.017c-1.235,7.183,2.125,7.319,10.162,4.911l1.448,7.421a3.644,3.644,0,0,1-3.455,4.346Z" transform="translate(-465.32 -450.889)" fill="#2f2e41"/>
      <path id="Trazado_557" data-name="Trazado 557" d="M869.81,771.837c-8.924.258-15.909-2.154-20.49-7.881a3.783,3.783,0,0,1-.286-4.308h0a3.782,3.782,0,0,1,3.682-1.811l2.9.339,5.993-2.528c-1.235,7.183,2.17,6.83,10.207,4.422l1.448,7.421a3.644,3.644,0,0,1-3.455,4.346Z" transform="translate(-515.302 -451.438)" fill="#2f2e41"/>
      <circle id="Elipse_550" data-name="Elipse 550" cx="14.024" cy="14.024" r="14.024" transform="translate(310.553 44.617)" fill="#ffb8b8"/>
      <path id="Trazado_558" data-name="Trazado 558" d="M700.983,156.359l-15.076.7-.7-15.777,12.972-4.908Z" transform="translate(-362.382 -72.124)" fill="#ffb8b8"/>
      <path id="Trazado_559" data-name="Trazado 559" d="M839.206,381.585c-20.558-3.89-43.981-5.284-59.6,0l4.908-103.076,16.478-4.908,1.227-1.928,13.849-2.279,6.661,2.1,4.207,6.311,18.231,10.167C836.192,322.69,833.534,354.231,839.206,381.585Z" transform="translate(-478.868 -194.275)" fill="#6c63ff"/>
      <path id="Trazado_560" data-name="Trazado 560" d="M910.024,398.988l-15.076-1.753c3.142-15.31,1.857-35.225,2.63-55.219.49-12.681,3.12-24.221,4.032-38.39h0c5.718,1.491,8.678,6.8,8.712,13.057C910.483,346.357,913.286,374.162,910.024,398.988Z" transform="translate(-539.869 -212.378)" fill="#6c63ff"/>
      <path id="Trazado_561" data-name="Trazado 561" d="M771.26,388.534l-14.725-1.052L765.3,337.7l2.967-41.429c-.462-6.042,2.767-9.552,7.551-9.758h0c10.448,12.373,11.66,29.424,8.414,48.733Z" transform="translate(-466.667 -203.327)" fill="#6c63ff"/>
      <path id="Trazado_562" data-name="Trazado 562" d="M810.088,223.959l-1.809-5.148a16.886,16.886,0,0,0-13.38-11.1h0l-11.334-.26,3.147-5.057a15.378,15.378,0,0,1,14.582-7.177l11.328,1.129a10.261,10.261,0,0,1,9.2,11.163l-1.039,11.14a7.017,7.017,0,0,1-10.694,5.306Z" transform="translate(-480.963 -155.006)" fill="#2f2e41"/>
    </g>
    <g id="Grupo_180" data-name="Grupo 180" transform="translate(28.571 69.447) rotate(13)">
      <path id="Trazado_524" data-name="Trazado 524" d="M0,145.862c13.192.327,28.065,0,37.179-9.54,6.92-7.242,8.545-17.851,10.875-27.6C52.262,91.134,59.912,74.2,71.535,60.332S98.846,35.77,116.406,31.457c14.113-3.473,28.955-2.818,43.142-5.938S188.306,13.989,192.229,0" transform="translate(0 25.528)" fill="none" stroke="#fff" stroke-width="0.75" stroke-dasharray="12" opacity="0.3"/>
      <path id="Trazado_525" data-name="Trazado 525" d="M36.048.009.45,12.984A.7.7,0,0,0,.314,14.22l5.314,2.947a1.347,1.347,0,0,1,.618.8L9.292,27.61c0,.408.741.618.809.222l.426-7.538a2.724,2.724,0,0,1,.822-1.415L30.913,4.667a.439.439,0,0,1,.389-.049.4.4,0,0,1,.124.655L14.032,21.135a3.335,3.335,0,0,0-.8,1.4l-1.854,6.3c0,.568.4.847.828.4l3.707-3.256a.674.674,0,0,1,.958,0l7.3,7.168a.667.667,0,0,0,1.1-.253L36.838.923a.673.673,0,0,0-.853-.884Z" transform="translate(191.935 0)" fill="#55f01d" opacity="0.5"/>
    </g>
  </g>
</svg>
