<svg xmlns="http://www.w3.org/2000/svg" width="254.034" height="417.5" viewBox="0 0 254.034 417.5">
  <g id="Grupo_269" data-name="Grupo 269" transform="translate(-780.467 -1679.5)">
    <g id="Grupo_268" data-name="Grupo 268" transform="translate(-37 -8)">
      <path id="Trazado_667" data-name="Trazado 667" d="M533.9,775.131H398.955v-1.1H534.1Z" transform="translate(537.398 1326.74)" fill="#3f3d56"/>
      <rect id="Rect치ngulo_467" data-name="Rect치ngulo 467" width="7.33" height="15.708" transform="translate(983.935 2080.267)" fill="#fbbebe"/>
      <rect id="Rect치ngulo_468" data-name="Rect치ngulo 468" width="7.33" height="15.708" transform="translate(1041.006 2080.791)" fill="#fbbebe"/>
      <path id="Trazado_668" data-name="Trazado 668" d="M825.5,679.255l-8.9-1.047L793.558,571.921,768.426,678.732l-8.9-1.047c-1.469-48.33,2.824-96.68,6.545-136.917l53.144-4.45C829.226,575.967,829.637,625.313,825.5,679.255Z" transform="translate(223.625 1409.127)" fill="#2f2e41"/>
      <path id="Trazado_669" data-name="Trazado 669" d="M868.391,548.327s-12.378,12.916-5.382,16.145,11.3-14.531,11.3-14.531Z" transform="translate(175.203 1403.405)" fill="#fbbebe"/>
      <path id="Trazado_670" data-name="Trazado 670" d="M747.392,550.327s-12.378,12.916-5.382,16.145,11.3-14.531,11.3-14.531Z" transform="translate(232.849 1402.452)" fill="#fbbebe"/>
      <circle id="Elipse_598" data-name="Elipse 598" cx="14.66" cy="14.66" r="14.66" transform="translate(1003.308 1829.994)" fill="#fbbebe"/>
      <path id="Trazado_671" data-name="Trazado 671" d="M834.973,377.543l-26.179,2.618c2.42-10.893,3.006-21.07,0-29.844h18.326C826.124,357.628,829.845,367.242,834.973,377.543Z" transform="translate(200.011 1497.74)" fill="#fbbebe"/>
      <path id="Trazado_672" data-name="Trazado 672" d="M823.236,469.185c-9.782,11.767-30.338,7.833-53.929-.524,6.694-21.851,5.656-44.9-.359-68.731a5.6,5.6,0,0,1,3.141-6.5l19.208-8.537,7.33,1.571,12.566-3.142,17.837,3.649a6.192,6.192,0,0,1,4.942,6.379C832.481,422.591,829.842,449.657,823.236,469.185Z" transform="translate(219.079 1482.019)" fill="#e6e6e6"/>
      <path id="Trazado_673" data-name="Trazado 673" d="M878.506,481.944l-4.712-7.854,8.9-33.509-4.712-50.264h0a14.4,14.4,0,0,1,12.655,11.342l7.149,33.7a23.348,23.348,0,0,1-1.838,15.046Z" transform="translate(169.044 1478.684)" fill="#e6e6e6"/>
      <path id="Trazado_674" data-name="Trazado 674" d="M756.027,480.949l-10.733,1.833,6.844-67a17.02,17.02,0,0,1,10.7-15.465h0l3.4,44.243Z" transform="translate(230.264 1473.92)" fill="#e6e6e6"/>
      <path id="Trazado_675" data-name="Trazado 675" d="M747.292,816.3l-19.757,3.47a4.405,4.405,0,0,1-2.643-.356h0a4.405,4.405,0,0,1-1.11-7.217l8.463-7.831,2.206-3.856a7.794,7.794,0,0,1,6.151-3.979c3.773-.262,5.018,2.609,4.23,8,2.866,2.108,3.319,1.784,5.248-1.053l.876,8.888a4.458,4.458,0,0,1-3.663,3.931Z" transform="translate(241.186 1285.165)" fill="#2f2e41"/>
      <path id="Trazado_676" data-name="Trazado 676" d="M856.292,816.3l-19.757,3.47a4.405,4.405,0,0,1-2.643-.356h0a4.405,4.405,0,0,1-1.11-7.217l8.463-7.831,2.206-3.856a7.794,7.794,0,0,1,6.151-3.979c3.773-.262,5.018,2.609,4.229,8,2.866,2.108,3.319,1.784,5.248-1.053l.876,8.888A4.458,4.458,0,0,1,856.292,816.3Z" transform="translate(189.257 1285.165)" fill="#2f2e41"/>
      <path id="Trazado_677" data-name="Trazado 677" d="M801.623,319.017c6.608-3.781,13.225-1.365,19.853,8.95l1.355,10.988c9.948-9.424,9.445-22.286-1.711-27.517a5.7,5.7,0,0,0-3.353-.892,10.511,10.511,0,0,0-13.914,3.738c-2.061.357-5.016,4.452-4.91,6.541Z" transform="translate(204.705 1517.284)" fill="#2f2e41"/>
      <ellipse id="Elipse_599" data-name="Elipse 599" cx="1.833" cy="2.356" rx="1.833" ry="2.356" transform="translate(1023.728 1843.083)" fill="#fbbebe"/>
    </g>
    <g id="Grupo_267" data-name="Grupo 267" transform="translate(53 -16)">
      <path id="Trazado_678" data-name="Trazado 678" d="M151.4,500H174.91a9.278,9.278,0,0,1-9.278,9.278h-4.948A9.278,9.278,0,0,1,151.4,500h0Z" transform="translate(637.14 1397.204)" fill="#fff"/>
      <path id="Trazado_679" data-name="Trazado 679" d="M392.737,320.216v-8.622c0-10.419,11.331-20.273,18.682-27.3,10.361-9.9,15.808-23.212,15.808-38.8a51.734,51.734,0,1,0-103.468-.288q0,.144,0,.288c0,15.032,5.68,29.241,15.808,38.8,7.311,6.9,18.682,16.778,18.682,27.3v8.622" transform="translate(424.806 1556.214)" fill="#fff"/>
      <path id="Trazado_681" data-name="Trazado 681" d="M443.512,542.979H420.519a2.017,2.017,0,1,1,0-4.034h22.993a2.017,2.017,0,1,1,0,4.034Z" transform="translate(368.282 1350.191)" fill="#47d215"/>
      <path id="Trazado_682" data-name="Trazado 682" d="M290.8,176.024a2.009,2.009,0,0,1-1.326-.5l-17.322-15.12a2.017,2.017,0,1,1,2.653-3.039l17.322,15.12a2.017,2.017,0,0,1-1.327,3.537Z" transform="translate(456.005 1578.134)" fill="#92ef6c"/>
      <path id="Trazado_683" data-name="Trazado 683" d="M574.494,176.024a2.017,2.017,0,0,1-1.327-3.537l17.322-15.12a2.017,2.017,0,0,1,2.653,3.039l-17.322,15.12A2.009,2.009,0,0,1,574.494,176.024Z" transform="translate(276.423 1578.134)" fill="#92ef6c"/>
      <path id="Trazado_684" data-name="Trazado 684" d="M440.76,525.232H406.27a2.017,2.017,0,0,1,0-4.034H440.76a2.017,2.017,0,1,1,0,4.034Z" transform="translate(376.783 1360.779)" fill="#47d215"/>
      <path id="Trazado_685" data-name="Trazado 685" d="M449.018,438.476A2.017,2.017,0,0,1,447,436.459V390.474a2.017,2.017,0,0,1,4.034,0v45.986a2.017,2.017,0,0,1-2.017,2.017Z" transform="translate(351.28 1437.971)" fill="#92ef6c"/>
      <path id="Trazado_686" data-name="Trazado 686" d="M428.828,383.989c-6.517,0-14.519-5.9-14.856-6.147a2.017,2.017,0,0,1,2.408-3.237c2,1.487,8.151,5.35,12.448,5.35s10.444-3.862,12.449-5.35a2.017,2.017,0,1,1,2.407,3.238C443.346,378.093,435.345,383.989,428.828,383.989Z" transform="translate(371.47 1446.473)" fill="#92ef6c"/>
      <path id="Trazado_687" data-name="Trazado 687" d="M449.017,97.468A2.017,2.017,0,0,1,447,95.451V60.962a2.017,2.017,0,0,1,4.034,0V95.451a2.017,2.017,0,0,1-2.017,2.017Z" transform="translate(351.28 1636.555)" fill="#92ef6c"/>
    </g>
  </g>
</svg>
