<?xml version="1.0" encoding="utf-8"?>
<!-- Generator: Adobe Illustrator 22.1.0, SVG Export Plug-In . SVG Version: 6.00 Build 0)  -->
<svg version="1.1" id="Capa_1" xmlns="http://www.w3.org/2000/svg" xmlns:xlink="http://www.w3.org/1999/xlink" x="0px" y="0px"
	 viewBox="0 0 392 130" style="enable-background:new 0 0 392 130;" xml:space="preserve">
<style type="text/css">
	.st0{fill:#FFFFFF;}
	.st1{fill:#55F01D;}
	.st2{fill:#42C712;}
	.st3{fill:#55F01D;fill-opacity:0.36;}
</style>
<title>logo W</title>
<path class="st0" d="M24.4,57.2L24.4,57.2c0.1,19.6,15,35.6,34.1,35.6l0,0c18.8,0,33.7-15.9,33.8-35.6l0,0
	c-0.1-19.6-14.9-35.6-33.8-35.6l0,0C39.4,21.6,24.4,37.5,24.4,57.2z M29.3,57.2L29.3,57.2c0-17.3,13.1-30.5,29.1-30.5l0,0
	c15.5,0,28.6,13.2,28.7,30.5l0,0C87.1,74.3,74,87.8,58.4,87.8l0,0C42.4,87.8,29.3,74.3,29.3,57.2z M112.1,110.9
	c0,1.3,1.1,2.4,2.4,2.4c1.4,0,2.5-1,2.5-2.4v-28c4.4,6,11.3,9.6,18.8,9.6c13.3,0,23.9-11.1,23.9-24.4c0.2-13.3-10.5-24.2-23.8-24.3
	c0,0-0.1,0-0.1,0c-7.4,0-14.4,3.5-18.8,9.5v-7.1c0-1.4-1.2-2.4-2.5-2.4c0,0,0,0,0,0c-1.3,0-2.4,1.1-2.4,2.4L112.1,110.9L112.1,110.9
	z M117.1,67.2c0.4-10.4,8.8-18.6,18.8-18.6c10.6,0.1,19,8.8,18.9,19.4c0,0,0,0.1,0,0.1c0.1,10.6-8.3,19.4-18.9,19.6
	C125.6,87.5,117,78.8,117,68L117.1,67.2L117.1,67.2z M198.1,92.7c8.1,0,15.7-4.2,20-11.1c0.7-1.2,0.3-2.7-0.8-3.4
	c-1.1-0.7-2.6-0.3-3.2,0.8c-3.4,5.6-9.4,8.9-15.9,8.9c-10.4-0.1-18.9-8.4-19.1-18.8h40.5c1.3,0.1,2.3-0.9,2.4-2.1c0,0,0,0,0-0.1
	v-0.4c-1-12.8-11.1-22.8-23.8-22.8c-13.3,0-24,11-24,24.6C174,81.7,184.7,92.6,198.1,92.7L198.1,92.7z M198.1,48.5
	c9.2,0.1,17.1,6.8,18.6,15.9h-37.4C180.8,55.2,188.8,48.5,198.1,48.5L198.1,48.5z M274.3,90.3c0,1.3,1.1,2.4,2.4,2.4
	c1.3,0,2.4-1.1,2.4-2.4V63.7c-0.1-11.1-9.1-20-20.2-19.9c-5.9,0-11.4,2.6-15.2,7.1v-4.7c0-1.3-1.1-2.4-2.4-2.4
	c-1.3,0-2.4,1.1-2.4,2.4v44.8c0.1,0.1,0.1,0.1,0.1,0.2c0,0.1,0,0.2,0.1,0.3c0.3,0.6,0.9,1.1,1.6,1.3h0.6c1.1,0,2.1-0.9,2.3-2v-27
	c0.2-8.4,7-15.1,15.3-15.1c8.4,0,15.2,6.7,15.2,15.1c0,0,0,0,0,0L274.3,90.3z"/>
<g id="Capa_1-2">
	<g id="_313862040">
		<path class="st1" d="M321,33.7c0.4,0.5,0.3,0.2,0.4,0.9c0.8,0.8,5.2,8.2,6.2,9.8c0.7,1.1,1.4,2.2,2,3.3l6.1,10l-3.1,5.1
			c-0.9,1.7-1.9,3.3-3.1,4.8l-8.4,13.9l-7.3,12h15c1.2,0,2.4-0.6,3.1-1.7l15.4-25.1c1.8-3,3.8-6,5.5-9l-20-32.6
			c-0.5-0.8-1.9-3.4-4.8-3.4h-14.2C314.3,23,320.3,32,321,33.7L321,33.7z"/>
		<path class="st2" d="M367.5,33.7c-0.4,0.5-0.3,0.2-0.4,0.9c-0.8,0.8-5.2,8.2-6.2,9.8c-0.7,1.1-1.4,2.2-2,3.3l-6.1,10l3.1,5.1
			c0.9,1.7,2,3.3,3.1,4.8l8.4,13.9l7.3,12h-14.9c-1.2,0-2.4-0.6-3.1-1.7l-15.4-25.1c-1.8-3-3.8-6-5.5-9l20-32.6
			c0.5-0.8,1.9-3.4,4.8-3.4h14.2C374.2,23,368.3,32,367.5,33.7L367.5,33.7z"/>
		<path class="st2" d="M295.7,21.7H309v68.4c0.1,1.8-1.3,3.3-3.1,3.4h-13.3V25C292.5,23.2,293.9,21.7,295.7,21.7L295.7,21.7z"/>
		<path class="st3" d="M344.3,43.8l8.5,13.9l-8.5,14c-2.8-4.6-5.7-9.1-8.5-14L344.3,43.8z"/>
	</g>
</g>
</svg>
