<svg xmlns="http://www.w3.org/2000/svg" width="366.698" height="260.473" viewBox="0 0 366.698 260.473">
  <g id="Grupo_254" data-name="Grupo 254" transform="translate(366.61 199.432) rotate(167)">
    <path id="Trazado_524" data-name="Trazado 524" d="M0,.106c18.493-.459,39.342,0,52.118,13.374C61.819,23.632,64.1,38.5,67.362,52.163c5.9,24.66,16.622,48.393,32.915,67.839s38.285,34.43,62.9,40.476c19.783,4.868,40.589,3.95,60.476,8.324s40.312,16.163,45.812,35.773" transform="translate(0 0)" fill="none" stroke="#fff" stroke-width="0.75" stroke-dasharray="12" opacity="0.3"/>
    <path id="Trazado_525" data-name="Trazado 525" d="M50.531,46.707.631,28.517a.979.979,0,0,1-.19-1.732L7.89,22.653a1.888,1.888,0,0,0,.866-1.126l4.27-13.512c0-.572,1.039-.866,1.135-.312l.6,10.567a3.818,3.818,0,0,0,1.152,1.984L43.333,40.176a.615.615,0,0,0,.546.069.554.554,0,0,0,.173-.918L19.67,17.093a4.676,4.676,0,0,1-1.118-1.958l-2.6-8.826c0-.8.554-1.187,1.161-.554l5.2,4.565a.944.944,0,0,0,1.343,0L33.892.271a.935.935,0,0,1,1.542.355l16.206,44.8a.944.944,0,0,1-1.2,1.239Z" transform="translate(269.055 193.641)" fill="#92ef6c" opacity="0.768"/>
  </g>
</svg>
