<svg id="Circle_Button_" data-name="Circle Button " xmlns="http://www.w3.org/2000/svg" width="56" height="56" viewBox="0 0 56 56">
  <rect id="Area" width="56" height="56" rx="28" fill="#091b31"/>
  <path id="Icon_material-phonelink-setup" data-name="Icon material-phonelink-setup" d="M14.754,14.918V13.751l1.283-.933a.429.429,0,0,0,.117-.35l-1.167-1.983c-.117-.117-.233-.233-.35-.117l-1.517.467a4.729,4.729,0,0,0-1.05-.583l-.233-1.517c0-.117-.117-.233-.35-.233H9.153c-.117,0-.233.117-.35.233L8.57,10.251a4.729,4.729,0,0,0-1.05.583L6,10.251a.429.429,0,0,0-.35.117L4.486,12.351c-.117.117,0,.233.117.35l1.283.933V14.8L4.6,15.734a.882.882,0,0,0-.117.467l1.167,1.983c.117.117.233.233.35.117l1.633-.467a4.729,4.729,0,0,0,1.05.583l.233,1.517c-.117.117.117.233.233.233h2.334c.117,0,.233-.117.35-.233l.233-1.517a4.729,4.729,0,0,0,1.05-.583l1.517.583a.429.429,0,0,0,.35-.117l1.167-1.983c.117-.117,0-.233-.117-.35l-1.283-1.05Zm-4.434,1.75a2.334,2.334,0,1,1,2.334-2.334A2.34,2.34,0,0,1,10.32,16.668ZM23.154,1.5H11.487A2.34,2.34,0,0,0,9.153,3.834v3.5h2.334V5H23.154V23.668H11.487V21.335H9.153v3.5a2.34,2.34,0,0,0,2.334,2.334H23.154a2.34,2.34,0,0,0,2.334-2.334v-21A2.34,2.34,0,0,0,23.154,1.5Z" transform="translate(10.468 14)" fill="#68fb6a"/>
</svg>
