<svg xmlns="http://www.w3.org/2000/svg" width="22.466" height="19.399" viewBox="0 0 22.466 19.399">
  <g id="facebook" transform="translate(-2.296 -2.027)">
    <path id="Trazado_7" data-name="Trazado 7" d="M20.549,2.027H6.508A3.959,3.959,0,0,0,2.3,5.664V17.789a3.959,3.959,0,0,0,4.212,3.637H14.26l.043-6.659H12.2V12.948H14.3V9.917A2.025,2.025,0,0,1,16.409,8.1h2.8V9.923H17.737A1.273,1.273,0,0,0,16.4,11.135v1.819h.681l1.439-.006v1.819H16.409v6.659h4.14a3.959,3.959,0,0,0,4.212-3.637V5.664A3.96,3.96,0,0,0,20.549,2.027Z" fill="#92ef6c"/>
  </g>
</svg>
