<svg xmlns="http://www.w3.org/2000/svg" width="20.575" height="20.588" viewBox="0 0 20.575 20.588">
  <g id="instagram_black" transform="translate(-0.192 -0.581)">
    <g id="contact" transform="translate(0.192 0.581)">
      <g id="Group-2" transform="translate(0 0)">
        <g id="instagram" transform="translate(0 0)">
          <path id="Shape" d="M10.879,2.436c2.747,0,3.072.01,4.157.059a5.7,5.7,0,0,1,1.91.355,3.185,3.185,0,0,1,1.183.77A3.187,3.187,0,0,1,18.9,4.8a5.7,5.7,0,0,1,.354,1.912c.049,1.086.059,1.411.059,4.16s-.01,3.074-.059,4.16a5.707,5.707,0,0,1-.354,1.912A3.4,3.4,0,0,1,16.947,18.9a5.69,5.69,0,0,1-1.91.355c-1.085.049-1.41.059-4.157.059s-3.072-.01-4.157-.059a5.7,5.7,0,0,1-1.91-.355,3.185,3.185,0,0,1-1.183-.77,3.187,3.187,0,0,1-.769-1.184A5.707,5.707,0,0,1,2.5,15.035c-.048-1.086-.059-1.411-.059-4.16s.01-3.074.059-4.16A5.706,5.706,0,0,1,2.859,4.8,3.187,3.187,0,0,1,3.629,3.62a3.185,3.185,0,0,1,1.183-.77A5.69,5.69,0,0,1,6.722,2.5c1.085-.048,1.41-.059,4.157-.059Zm0-1.854c-2.794,0-3.144.011-4.242.062a7.538,7.538,0,0,0-2.5.479A5.053,5.053,0,0,0,2.318,2.31,5.047,5.047,0,0,0,1.131,4.133a7.569,7.569,0,0,0-.478,2.5C.6,7.729.592,8.079.592,10.875S.6,14.021.654,15.12a7.577,7.577,0,0,0,.478,2.5,5.263,5.263,0,0,0,3.009,3.011,7.535,7.535,0,0,0,2.5.478c1.1.05,1.447.062,4.242.062s3.144-.011,4.242-.062a7.564,7.564,0,0,0,2.5-.478,5.263,5.263,0,0,0,3.009-3.011,7.548,7.548,0,0,0,.478-2.5c.05-1.1.062-1.448.062-4.244s-.011-3.146-.062-4.244a7.577,7.577,0,0,0-.478-2.5,5.057,5.057,0,0,0-1.187-1.824,5.043,5.043,0,0,0-1.822-1.187,7.57,7.57,0,0,0-2.5-.478c-1.1-.049-1.447-.062-4.242-.062Z" transform="translate(-0.592 -0.581)" fill="#92ef6c"/>
          <path id="Shape-2" data-name="Shape" d="M11.112,5.651A5.454,5.454,0,1,0,16.471,11.1,5.407,5.407,0,0,0,11.112,5.651Zm0,8.993a3.54,3.54,0,1,1,3.479-3.54A3.51,3.51,0,0,1,11.112,14.644Z" transform="translate(-0.824 -0.81)" fill="#92ef6c"/>
          <ellipse id="Oval" cx="1.216" cy="1.194" rx="1.216" ry="1.194" transform="translate(14.575 3.58)" fill="#92ef6c"/>
        </g>
      </g>
    </g>
  </g>
</svg>
