<svg id="Circle_Button_" data-name="Circle Button " xmlns="http://www.w3.org/2000/svg" width="56" height="56" viewBox="0 0 56 56">
  <rect id="Area" width="56" height="56" rx="28" fill="#091b31"/>
  <g id="ios-images" transform="translate(13.219 13.226)">
    <path id="Trazado_759" data-name="Trazado 759" d="M16.994,13.972a.265.265,0,0,0-.43-.039l-5.14,6.835a.261.261,0,0,0,.179.43l9.01.783a.266.266,0,0,0,.251-.4l-3.871-7.613Z" transform="translate(-1.864 -2.371)" fill="#68fb6a"/>
    <path id="Trazado_760" data-name="Trazado 760" d="M25.352,18.492a.265.265,0,0,0-.43-.039l-1.387,1.4,1.421,2.768a.262.262,0,0,0,.207.129l2.511.218a.266.266,0,0,0,.251-.4L25.379,18.19Z" transform="translate(-4.354 -3.261)" fill="#68fb6a"/>
    <path id="Trazado_761" data-name="Trazado 761" d="M26.238,15.1a1.323,1.323,0,1,0-1.325-1.572A1.333,1.333,0,0,0,26.238,15.1Z" transform="translate(-4.631 -2.087)" fill="#68fb6a"/>
    <path id="Trazado_762" data-name="Trazado 762" d="M25.92,7.691l-3.681-.319L21.9,3.625a1.511,1.511,0,0,0-1.65-1.371L3.632,3.754A1.517,1.517,0,0,0,2.256,5.4l1.5,16.584A1.511,1.511,0,0,0,5.4,23.352l.878-.078-.084.934A1.512,1.512,0,0,0,7.58,25.847L24.208,27.3a1.517,1.517,0,0,0,1.644-1.376L27.307,9.33A1.524,1.524,0,0,0,25.92,7.691ZM5.359,17.278a.385.385,0,0,1-.414-.341L3.939,5.75a.376.376,0,0,1,.341-.408L19.9,3.938a.385.385,0,0,1,.414.341l.268,2.953L9.3,6.243A1.517,1.517,0,0,0,7.653,7.619l-.834,9.525ZM25.617,9.694l-.978,11.186a.381.381,0,0,1-.408.347l-1.04-.09L8.61,19.867a.381.381,0,0,1-.347-.408L8.475,17l.766-8.73a.381.381,0,0,1,.408-.347l11.074.967,1.661.146,2.886.251a.365.365,0,0,1,.347.4Z" transform="translate(0)" fill="#68fb6a"/>
  </g>
</svg>
