<svg id="Circle_Button_" data-name="Circle Button " xmlns="http://www.w3.org/2000/svg" width="56" height="56" viewBox="0 0 56 56">
  <rect id="Area" width="56" height="56" rx="28" fill="#091b31"/>
  <g id="Icon_" data-name="Icon " transform="matrix(0.999, -0.035, 0.035, 0.999, 13.832, 23.946)">
    <rect id="Area-2" data-name="Area" width="21.004" height="21.004" fill="rgba(253,73,198,0.35)" opacity="0"/>
    <g id="Icon" transform="translate(0.875 0.875)">
      <ellipse id="Path" cx="2.864" cy="2.864" rx="2.864" ry="2.864" transform="translate(6.763 6.763)" fill="none" stroke="#68fb6a" stroke-linecap="round" stroke-linejoin="round" stroke-width="1.5"/>
      <path id="Path-2" data-name="Path" d="M16.092,12.244a1.443,1.443,0,0,0,.289,1.592l.052.052a1.75,1.75,0,1,1-2.475,2.475l-.052-.052a1.455,1.455,0,0,0-2.466,1.032v.149a1.749,1.749,0,0,1-3.5,0v-.079A1.443,1.443,0,0,0,7,16.092a1.443,1.443,0,0,0-1.592.289l-.052.052a1.75,1.75,0,1,1-2.475-2.475l.052-.052A1.455,1.455,0,0,0,1.9,11.439H1.749a1.749,1.749,0,1,1,0-3.5h.079A1.443,1.443,0,0,0,3.148,7,1.443,1.443,0,0,0,2.86,5.4l-.052-.052A1.75,1.75,0,1,1,5.282,2.877l.052.052a1.443,1.443,0,0,0,1.592.289H7A1.444,1.444,0,0,0,7.871,1.9V1.749a1.749,1.749,0,0,1,3.5,0v.079A1.455,1.455,0,0,0,13.836,2.86l.052-.052a1.75,1.75,0,1,1,2.475,2.475l-.052.052a1.443,1.443,0,0,0-.289,1.592V7a1.444,1.444,0,0,0,1.321.875h.149a1.749,1.749,0,1,1,0,3.5h-.079A1.444,1.444,0,0,0,16.092,12.244Z" fill="none" stroke="#68fb6a" stroke-linecap="round" stroke-linejoin="round" stroke-width="1.5"/>
    </g>
  </g>
  <g id="Icon_2" data-name="Icon " transform="matrix(0.999, -0.035, 0.035, 0.999, 27.945, 17.722)">
    <rect id="Area-3" data-name="Area" width="16.231" height="16.231" fill="rgba(253,73,198,0.35)" opacity="0"/>
    <g id="Icon-2" data-name="Icon" transform="translate(0.68 0.68)">
      <ellipse id="Path-3" data-name="Path" cx="2.387" cy="2.387" rx="2.387" ry="2.387" transform="translate(5.049 5.048)" fill="none" stroke="#68fb6a" stroke-linecap="round" stroke-linejoin="round" stroke-width="1.5"/>
      <path id="Path-4" data-name="Path" d="M12.511,9.519a1.122,1.122,0,0,0,.224,1.237l.041.041a1.361,1.361,0,1,1-1.924,1.924l-.041-.041a1.131,1.131,0,0,0-1.917.8V13.6a1.36,1.36,0,0,1-2.72,0v-.061a1.122,1.122,0,0,0-.734-1.027,1.122,1.122,0,0,0-1.238.224l-.041.041a1.361,1.361,0,1,1-1.924-1.924l.041-.041a1.131,1.131,0,0,0-.8-1.917H1.36a1.36,1.36,0,1,1,0-2.72h.061A1.122,1.122,0,0,0,2.448,5.44,1.122,1.122,0,0,0,2.223,4.2l-.041-.041A1.361,1.361,0,1,1,4.107,2.237l.041.041A1.122,1.122,0,0,0,5.385,2.5H5.44a1.123,1.123,0,0,0,.68-1.027V1.36a1.36,1.36,0,0,1,2.72,0v.061a1.131,1.131,0,0,0,1.917.8l.041-.041a1.361,1.361,0,1,1,1.924,1.924l-.041.041a1.122,1.122,0,0,0-.224,1.237V5.44a1.123,1.123,0,0,0,1.027.68H13.6a1.36,1.36,0,1,1,0,2.72h-.061A1.123,1.123,0,0,0,12.511,9.519Z" fill="none" stroke="#68fb6a" stroke-linecap="round" stroke-linejoin="round" stroke-width="1.5"/>
    </g>
  </g>
  <g id="Icon_3" data-name="Icon " transform="matrix(0.999, -0.035, 0.035, 0.999, 13.399, 11.542)">
    <rect id="Area-4" data-name="Area" width="16.231" height="16.231" fill="rgba(253,73,198,0.35)" opacity="0"/>
    <g id="Icon-3" data-name="Icon" transform="translate(0.68 0.68)">
      <ellipse id="Path-5" data-name="Path" cx="2.387" cy="2.387" rx="2.387" ry="2.387" transform="translate(5.049 5.048)" fill="none" stroke="#68fb6a" stroke-linecap="round" stroke-linejoin="round" stroke-width="1.5"/>
      <path id="Path-6" data-name="Path" d="M12.511,9.519a1.122,1.122,0,0,0,.224,1.237l.041.041a1.361,1.361,0,1,1-1.924,1.924l-.041-.041a1.131,1.131,0,0,0-1.917.8V13.6a1.36,1.36,0,0,1-2.72,0v-.061a1.122,1.122,0,0,0-.734-1.027,1.122,1.122,0,0,0-1.238.224l-.041.041a1.361,1.361,0,1,1-1.924-1.924l.041-.041a1.131,1.131,0,0,0-.8-1.917H1.36a1.36,1.36,0,1,1,0-2.72h.061A1.122,1.122,0,0,0,2.448,5.44,1.122,1.122,0,0,0,2.223,4.2l-.041-.041A1.361,1.361,0,1,1,4.107,2.237l.041.041A1.122,1.122,0,0,0,5.385,2.5H5.44a1.123,1.123,0,0,0,.68-1.027V1.36a1.36,1.36,0,0,1,2.72,0v.061a1.131,1.131,0,0,0,1.917.8l.041-.041a1.361,1.361,0,1,1,1.924,1.924l-.041.041a1.122,1.122,0,0,0-.224,1.237V5.44a1.123,1.123,0,0,0,1.027.68H13.6a1.36,1.36,0,1,1,0,2.72h-.061A1.123,1.123,0,0,0,12.511,9.519Z" fill="none" stroke="#68fb6a" stroke-linecap="round" stroke-linejoin="round" stroke-width="1.5"/>
    </g>
  </g>
</svg>
