<svg xmlns="http://www.w3.org/2000/svg" width="28.154" height="19.796" viewBox="0 0 28.154 19.796">
  <path id="Icon_awesome-youtube" data-name="Icon awesome-youtube" d="M28.616,7.6a3.538,3.538,0,0,0-2.489-2.505c-2.2-.592-11-.592-11-.592s-8.8,0-11,.592A3.538,3.538,0,0,0,1.638,7.6a37.111,37.111,0,0,0-.588,6.821,37.111,37.111,0,0,0,.588,6.821A3.485,3.485,0,0,0,4.127,23.7c2.2.592,11,.592,11,.592s8.8,0,11-.592a3.485,3.485,0,0,0,2.489-2.465,37.111,37.111,0,0,0,.588-6.821A37.111,37.111,0,0,0,28.616,7.6ZM12.248,18.6V10.232l7.358,4.186L12.248,18.6Z" transform="translate(-1.05 -4.5)" fill="#92ef6c"/>
</svg>
